# xmcd
#
# Track frame offsets:
#   150
#   7039
#   24500
#   43052
#   56998
#   75628
#   91776
#   107534
#   125780
#   149910
#   169461
#   187753
#   205112
#   227296
#   247233
#   262266
#   279764
#   299321
#   318128
#
# Disc length: 4504 seconds
#
# Revision: 0
# Processed by: cddbd v1.5.1PL2 Copyright (c) Steve Scherf et al.
# Submitted via: uFREEDB 1.6.2
#
DISCID=14119613
DTITLE=1 - 2
DYEAR=1900
DGENRE=Alternative
TTITLE0=18
TTITLE1=19
TTITLE2=20
TTITLE3=21
TTITLE4=22
TTITLE5=23
TTITLE6=24
TTITLE7=25
TTITLE8=26
TTITLE9=27
TTITLE10=28
TTITLE11=29
TTITLE12=30
TTITLE13=31
TTITLE14=32
TTITLE15=33
TTITLE16=34
TTITLE17=35
TTITLE18=36
EXTD=
EXTT0=
EXTT1=
EXTT2=
EXTT3=
EXTT4=
EXTT5=
EXTT6=
EXTT7=
EXTT8=
EXTT9=
EXTT10=
EXTT11=
EXTT12=
EXTT13=
EXTT14=
EXTT15=
EXTT16=
EXTT17=
EXTT18=
PLAYORDER=
